<svg xmlns="http://www.w3.org/2000/svg" xmlns:xlink="http://www.w3.org/1999/xlink" version="1.1" id="Capa_1" x="0px" y="0px" viewBox="0 0 297 297" style="enable-background:new 0 0 297 297;" xml:space="preserve">
<path d="M148.5,0C85.646,0,34.511,51.136,34.511,113.989c0,25.11,8.008,48.926,23.157,68.873  c13.604,17.914,32.512,31.588,53.658,38.904l27.464,68.659c1.589,3.971,5.434,6.574,9.71,6.574c4.276,0,8.121-2.603,9.71-6.574  l27.464-68.659c21.147-7.316,40.054-20.99,53.658-38.904c15.149-19.947,23.157-43.763,23.157-68.873  C262.489,51.136,211.354,0,148.5,0z M148.5,162.356c0,0-51.766-34.511-51.766-60.394c0-14.297,11.588-25.883,25.883-25.883  S148.5,87.668,148.5,101.963c0-14.295,11.588-25.883,25.883-25.883c14.295,0,25.883,11.586,25.883,25.883  C200.266,127.846,148.5,162.356,148.5,162.356z" fill="#00a8c6"/>
<g>
</g>
<g>
</g>
<g>
</g>
<g>
</g>
<g>
</g>
<g>
</g>
<g>
</g>
<g>
</g>
<g>
</g>
<g>
</g>
<g>
</g>
<g>
</g>
<g>
</g>
<g>
</g>
<g>
</g>
</svg>